<svg width="38" height="44" viewBox="0 0 38 44" fill="none" xmlns="http://www.w3.org/2000/svg">
  <path fill-rule="evenodd" clip-rule="evenodd" d="M12.4805 15.5C12.4805 9.97715 16.9576 5.5 22.4805 5.5C28.0033 5.5 32.4805 9.97715 32.4805 15.5C32.4805 21.0228 28.0033 25.5 22.4805 25.5C16.9576 25.5 12.4805 21.0228 12.4805 15.5ZM22.4805 0.5C14.1962 0.5 7.48047 7.21573 7.48047 15.5C7.48047 15.6032 7.48151 15.7061 7.48358 15.8088C5.50683 17.0539 3.8437 18.7466 2.63227 20.7559C1.2321 23.0783 0.487708 25.7369 0.478301 28.4487C0.468894 31.1605 1.19482 33.8242 2.57885 36.1562C3.96287 38.4883 5.95322 40.4015 8.33811 41.6924C10.723 42.9832 13.4132 43.6034 16.1226 43.4869C18.8319 43.3704 21.459 42.5216 23.7243 41.0308C25.9896 39.54 27.8083 37.463 28.9871 35.0207C30.0156 32.8898 30.5232 30.5503 30.4751 28.1943C34.6844 25.5377 37.4805 20.8454 37.4805 15.5C37.4805 7.21573 30.7647 0.5 22.4805 0.5ZM25.3275 30.2302C24.4057 30.4073 23.4539 30.5 22.4805 30.5C16.2252 30.5 10.8643 26.6711 8.61346 21.2292C7.95704 21.8489 7.38458 22.5574 6.91425 23.3375C5.9808 24.8858 5.48454 26.6582 5.47827 28.466C5.472 30.2739 5.95595 32.0497 6.87863 33.6044C7.80132 35.1591 9.12822 36.4346 10.7181 37.2952C12.3081 38.1557 14.1016 38.5692 15.9078 38.4915C17.714 38.4138 19.4654 37.848 20.9756 36.8541C22.4858 35.8603 23.6983 34.4756 24.4841 32.8474C24.8863 32.0142 25.169 31.1332 25.3275 30.2302Z" fill="#FFFFFF"/>
</svg>

